<svg xmlns="http://www.w3.org/2000/svg" style="display: none;">
  <!-- Paintbrush Icon -->
  <symbol id="icon-paintbrush" viewBox="0 0 24 24" fill="none" stroke="currentColor" stroke-width="2" stroke-linecap="round" stroke-linejoin="round">
    <path d="M10 2v2" />
    <path d="M14 2v4" />
    <path d="M17 2a1 1 0 0 1 1 1v9H6V3a1 1 0 0 1 1-1z" />
    <path d="M6 12a1 1 0 0 0-1 1v1a2 2 0 0 0 2 2h2a1 1 0 0 1 1 1v2.9a2 2 0 1 0 4 0V17a1 1 0 0 1 1-1h2a2 2 0 0 0 2-2v-1a1 1 0 0 0-1-1" />
  </symbol>

  <!-- Trash Icon -->
  <symbol id="icon-trash" viewBox="0 0 24 24" fill="none" stroke="currentColor" stroke-width="2">
    <path d="M3 6h18"></path>
    <path d="M19 6v14c0 1-1 2-2 2H7c-1 0-2-1-2-2V6"></path>
    <path d="M8 6V4c0-1 1-2 2-2h4c1 0 2 1 2 2v2"></path>
  </symbol>

  <!-- Check Square Icon -->
  <symbol id="icon-check-square" viewBox="0 0 24 24" fill="none" stroke="currentColor" stroke-width="2">
    <rect x="3" y="3" width="18" height="18" rx="2" ry="2"></rect>
    <path d="M9 11l3 3L22 4"></path>
  </symbol>

  <!-- Square Icon -->
  <symbol id="icon-square" viewBox="0 0 24 24" fill="none" stroke="currentColor" stroke-width="2">
    <rect x="3" y="3" width="18" height="18" rx="2" ry="2"></rect>
  </symbol>

  <!-- X Icon -->
  <symbol id="icon-x" viewBox="0 0 24 24" fill="none" stroke="currentColor" stroke-width="2">
    <line x1="18" y1="6" x2="6" y2="18"></line>
    <line x1="6" y1="6" x2="18" y2="18"></line>
  </symbol>

  <!-- Download Icon -->
  <symbol id="icon-download" viewBox="0 0 24 24" fill="none" stroke="currentColor" stroke-width="2" stroke-linecap="round" stroke-linejoin="round">
    <path d="M21 15v4a2 2 0 0 1-2 2H5a2 2 0 0 1-2-2v-4"></path>
    <polyline points="7 10 12 15 17 10"></polyline>
    <line x1="12" y1="15" x2="12" y2="3"></line>
  </symbol>

  <!-- Upload Icon -->
  <symbol id="icon-upload" viewBox="0 0 24 24" fill="none" stroke="currentColor" stroke-width="2" stroke-linecap="round" stroke-linejoin="round">
    <path d="M21 15v4a2 2 0 0 1-2 2H5a2 2 0 0 1-2-2v-4"></path>
    <polyline points="17 8 12 3 7 8"></polyline>
    <line x1="12" y1="3" x2="12" y2="15"></line>
  </symbol>
</svg>
